<svg width="10" height="10" viewBox="0 0 10 10" fill="none" xmlns="http://www.w3.org/2000/svg">
<rect width="10" height="10" fill="white" fill-opacity="0.01"/>
<path fill-rule="evenodd" clip-rule="evenodd" d="M8.65845 1.34044C8.68756 1.36946 8.71065 1.40395 8.7264 1.44191C8.74215 1.47988 8.75026 1.52058 8.75026 1.56169C8.75026 1.60279 8.74215 1.64349 8.7264 1.68146C8.71065 1.71942 8.68756 1.75391 8.65845 1.78294L1.78345 8.65794C1.72478 8.71661 1.64519 8.74958 1.5622 8.74958C1.47922 8.74958 1.39963 8.71661 1.34095 8.65794C1.28227 8.59926 1.24931 8.51967 1.24931 8.43669C1.24931 8.3537 1.28227 8.27411 1.34095 8.21544L8.21595 1.34044C8.24498 1.31133 8.27947 1.28824 8.31743 1.27249C8.3554 1.25674 8.3961 1.24863 8.4372 1.24863C8.47831 1.24863 8.51901 1.25674 8.55697 1.27249C8.59494 1.28824 8.62943 1.31133 8.65845 1.34044Z" fill="#6C757D"/>
<path fill-rule="evenodd" clip-rule="evenodd" d="M1.34095 1.34044C1.31185 1.36946 1.28876 1.40395 1.27301 1.44191C1.25725 1.47988 1.24915 1.52058 1.24915 1.56169C1.24915 1.60279 1.25725 1.64349 1.27301 1.68146C1.28876 1.71942 1.31185 1.75391 1.34095 1.78294L8.21595 8.65794C8.27463 8.71661 8.35422 8.74958 8.4372 8.74958C8.52019 8.74958 8.59978 8.71661 8.65845 8.65794C8.71713 8.59926 8.7501 8.51967 8.7501 8.43669C8.7501 8.3537 8.71713 8.27411 8.65845 8.21544L1.78345 1.34044C1.75443 1.31133 1.71994 1.28824 1.68198 1.27249C1.64401 1.25674 1.60331 1.24863 1.5622 1.24863C1.5211 1.24863 1.4804 1.25674 1.44243 1.27249C1.40447 1.28824 1.36998 1.31133 1.34095 1.34044Z" fill="#6C757D"/>
</svg>
